<?xml version="1.0" encoding="utf-8"?>
<!-- Generator: Adobe Illustrator 24.0.2, SVG Export Plug-In . SVG Version: 6.00 Build 0)  -->
<svg version="1.1" id="Layer_1" xmlns="http://www.w3.org/2000/svg" xmlns:xlink="http://www.w3.org/1999/xlink" x="0px" y="0px"
	 viewBox="0 0 834.18 524.83" style="enable-background:new 0 0 834.18 524.83;" xml:space="preserve">
<style type="text/css">
	.st0{fill:#FFFFFF;}
</style>
<g>
	<g>
		<g>
			<path class="st0" d="M31.47,467.61c4.22,0,8.19,0.75,11.9,2.25c3.71,1.5,6.96,3.54,9.74,6.11c2.78,2.58,4.97,5.61,6.57,9.11
				s2.4,7.25,2.4,11.25c0,3.95-0.8,7.65-2.4,11.1c-1.6,3.45-3.79,6.46-6.57,9.04c-2.78,2.58-6.02,4.61-9.74,6.11
				c-3.71,1.5-7.71,2.25-11.98,2.25c-4.22,0-8.19-0.75-11.9-2.25s-6.95-3.54-9.7-6.11c-2.75-2.58-4.93-5.6-6.53-9.07
				c-1.6-3.47-2.4-7.19-2.4-11.14s0.8-7.66,2.4-11.14c1.6-3.47,3.79-6.51,6.57-9.11s6.02-4.65,9.74-6.15
				C23.28,468.36,27.25,467.61,31.47,467.61z M7.83,496.18c0,3.05,0.61,5.93,1.84,8.62c1.23,2.7,2.91,5.06,5.05,7.09
				c2.14,2.02,4.65,3.61,7.53,4.76s5.96,1.72,9.22,1.72s6.32-0.57,9.18-1.72c2.86-1.15,5.36-2.74,7.49-4.76
				c2.14-2.02,3.82-4.39,5.05-7.09s1.84-5.57,1.84-8.62s-0.61-5.91-1.84-8.59c-1.23-2.67-2.91-5.01-5.05-7.01s-4.64-3.57-7.49-4.72
				c-2.86-1.15-5.92-1.72-9.18-1.72s-6.33,0.57-9.22,1.72c-2.89,1.15-5.4,2.73-7.53,4.72c-2.14,2-3.82,4.34-5.05,7.01
				C8.44,490.27,7.83,493.13,7.83,496.18z"/>
			<path class="st0" d="M72.18,522.35v-52.2c0-1.2,0.61-1.8,1.84-1.8H93.9c2.62,0,5.06,0.46,7.33,1.39s4.23,2.18,5.89,3.75
				c1.66,1.58,2.95,3.43,3.89,5.55c0.93,2.13,1.4,4.36,1.4,6.71c0,2.3-0.47,4.5-1.4,6.6c-0.94,2.1-2.22,3.94-3.85,5.51
				s-3.57,2.83-5.81,3.75c-2.24,0.93-4.65,1.39-7.21,1.39H79.07v19.35c0,1.1-0.59,1.65-1.76,1.65h-3.37
				C72.77,524,72.18,523.45,72.18,522.35z M105.52,485.68c0-1.45-0.31-2.84-0.92-4.16c-0.62-1.32-1.44-2.49-2.48-3.49
				s-2.27-1.8-3.69-2.4c-1.42-0.6-2.93-0.9-4.53-0.9H79.07v21.9H93.9c1.6,0,3.1-0.3,4.49-0.9c1.39-0.6,2.62-1.4,3.69-2.4
				s1.91-2.16,2.52-3.49C105.22,488.52,105.52,487.13,105.52,485.68z"/>
			<path class="st0" d="M119.63,468.36h41.19c0.48,0,0.91,0.14,1.28,0.41c0.37,0.27,0.59,0.69,0.64,1.24v3.07
				c0,0.5-0.16,0.93-0.48,1.28c-0.32,0.35-0.8,0.52-1.44,0.52h-17.07v47.47c0,0.45-0.16,0.84-0.48,1.16
				c-0.32,0.33-0.77,0.49-1.36,0.49h-3.29c-0.53,0-0.98-0.15-1.32-0.45c-0.35-0.3-0.52-0.7-0.52-1.2v-47.47h-17.15
				c-1.23,0-1.84-0.6-1.84-1.8v-3.07C117.78,468.91,118.4,468.36,119.63,468.36z"/>
			<path class="st0" d="M178.45,470.01v52.35c0,1.1-0.59,1.65-1.76,1.65h-3.37c-1.18,0-1.76-0.55-1.76-1.65v-52.35
				c0-1.1,0.59-1.65,1.76-1.65h3.37C177.86,468.36,178.45,468.91,178.45,470.01z"/>
			<path class="st0" d="M237.28,473.23c0.69,0.4,1.04,0.82,1.04,1.27c0,0.25-0.07,0.49-0.2,0.71c-0.13,0.23-0.25,0.41-0.36,0.56
				l-1.68,2.47c-0.48,0.6-0.94,0.9-1.36,0.9c-0.16-0.05-0.36-0.11-0.6-0.19c-0.24-0.07-0.52-0.21-0.84-0.41
				c-2.03-1.35-4.25-2.41-6.65-3.19c-2.4-0.77-4.84-1.16-7.29-1.16c-3.53,0-6.75,0.6-9.66,1.8s-5.42,2.81-7.53,4.84
				c-2.11,2.02-3.75,4.38-4.93,7.05c-1.18,2.68-1.76,5.49-1.76,8.44c0,3.1,0.65,6,1.96,8.7s3.06,5.04,5.25,7.01
				c2.19,1.98,4.71,3.52,7.57,4.65c2.86,1.12,5.84,1.69,8.94,1.69c2.03,0,4.03-0.25,6.01-0.75s4.17-1.42,6.57-2.77
				c0.53-0.25,1.07-0.59,1.6-1.01s0.99-0.64,1.36-0.64c0.48,0,0.93,0.3,1.36,0.9l1.84,2.85c0.16,0.35,0.24,0.7,0.24,1.05
				c0,0.55-0.29,0.97-0.88,1.27c-2.56,1.75-5.37,3.11-8.41,4.09c-3.05,0.97-6.33,1.46-9.86,1.46c-4.22,0-8.19-0.75-11.9-2.25
				s-6.95-3.54-9.7-6.11c-2.75-2.58-4.93-5.6-6.53-9.07c-1.6-3.47-2.4-7.19-2.4-11.14s0.8-7.66,2.4-11.14
				c1.6-3.47,3.79-6.51,6.57-9.11s6.02-4.65,9.74-6.15c3.71-1.5,7.68-2.25,11.9-2.25c3.37,0,6.58,0.49,9.66,1.46
				C231.81,470.04,234.66,471.43,237.28,473.23z"/>
			<path class="st0" d="M255.23,511.85l-4.49,10.65c-0.48,1-1.23,1.5-2.24,1.5h-3.45c-1.12,0-1.68-0.4-1.68-1.2
				c0-0.2,0.03-0.42,0.08-0.68c0-0.1,0.03-0.2,0.08-0.3c3.85-8.7,7.09-16.01,9.74-21.94c2.64-5.93,4.84-10.82,6.57-14.7
				c1.74-3.87,3.07-6.85,4.01-8.92c0.93-2.07,1.62-3.6,2.04-4.58c0.43-0.97,0.72-1.64,0.88-1.99c0.11-0.25,0.28-0.54,0.52-0.86
				s0.73-0.49,1.48-0.49h2.32c0.69,0,1.17,0.16,1.44,0.49s0.45,0.61,0.56,0.86l23.08,52.2c0.05,0.1,0.11,0.2,0.16,0.3
				c0.05,0.3,0.08,0.5,0.08,0.6c0,0.8-0.59,1.2-1.76,1.2h-3.45c-1.07,0-1.79-0.47-2.16-1.42l-4.65-10.72L255.23,511.85
				L255.23,511.85z M269.89,478.03l-11.78,27.45h23.48L269.89,478.03z"/>
			<path class="st0" d="M312.21,517.63h28.93c0.48,0,0.89,0.15,1.24,0.45c0.35,0.3,0.52,0.73,0.52,1.27v3
				c0,0.45-0.16,0.84-0.48,1.16c-0.32,0.33-0.75,0.49-1.28,0.49h-34.06c-1.18,0-1.76-0.55-1.76-1.65v-52.34
				c0-0.45,0.16-0.84,0.48-1.16c0.32-0.32,0.77-0.49,1.36-0.49h3.29c1.17,0,1.76,0.55,1.76,1.65L312.21,517.63L312.21,517.63z"/>
		</g>
		<g>
			<path class="st0" d="M428.17,523.77h-3.67c-0.57,0-1.07-0.22-1.49-0.66l-35.65-43.82v42.87c0,1.07-0.6,1.61-1.8,1.61h-3.2
				c-1.15,0-1.72-0.54-1.72-1.61v-50.99c0-0.49,0.16-0.89,0.47-1.21s0.73-0.47,1.25-0.47h4.3c0.63,0,1.12,0.24,1.49,0.73l35.1,42.72
				v-42.06c0.16-0.93,0.73-1.39,1.72-1.39h3.2c0.47,0,0.9,0.15,1.29,0.44s0.59,0.68,0.59,1.17v51.06
				C430.04,523.23,429.42,523.77,428.17,523.77z"/>
			<path class="st0" d="M444.19,469.49h37.6c1.15,0,1.72,0.56,1.72,1.68v3c0,0.44-0.16,0.83-0.47,1.17
				c-0.31,0.34-0.76,0.51-1.33,0.51h-32.52v16.17h25.87c0.47,0,0.87,0.13,1.21,0.4s0.51,0.69,0.51,1.28v3
				c0,0.44-0.14,0.83-0.43,1.17c-0.29,0.34-0.72,0.51-1.29,0.51h-25.87v19.02h32.83c1.2,0,1.8,0.59,1.8,1.75v3
				c0,1.07-0.57,1.61-1.72,1.61h-37.91c-1.15,0-1.72-0.51-1.72-1.54v-51.06C442.47,470.05,443.04,469.49,444.19,469.49z"/>
			<path class="st0" d="M489.76,469.49h40.18c0.47,0,0.89,0.13,1.25,0.4s0.57,0.67,0.63,1.21v3c0,0.49-0.16,0.9-0.47,1.24
				c-0.31,0.34-0.78,0.51-1.41,0.51h-16.65v46.3c0,0.44-0.16,0.82-0.47,1.13c-0.31,0.32-0.76,0.48-1.33,0.48h-3.2
				c-0.52,0-0.95-0.15-1.29-0.44c-0.34-0.29-0.51-0.68-0.51-1.17v-46.3h-16.73c-1.2,0-1.8-0.59-1.8-1.76v-3
				C487.97,470.03,488.56,469.49,489.76,469.49z"/>
			<path class="st0" d="M561.99,514.26l18.76-43.74c0.26-0.68,0.73-1.02,1.41-1.02h4.3c0.94,0,1.41,0.37,1.41,1.1
				c0,0.1-0.01,0.18-0.04,0.26c-0.03,0.07-0.07,0.18-0.12,0.33l-8.91,20.12c1.67,3.85,3.35,7.69,5.04,11.52s3.37,7.64,5.04,11.45
				c3.18-7.27,6.34-14.5,9.5-21.69c3.15-7.19,6.29-14.42,9.42-21.69c0.42-0.93,1.12-1.39,2.11-1.39h3.28c1.15,0,1.72,0.37,1.72,1.1
				c0,0.2-0.05,0.34-0.16,0.44L592,522.18c0,0.2-0.05,0.29-0.16,0.29c0,0.05-0.13,0.28-0.39,0.69s-0.73,0.62-1.41,0.62h-2.34
				c-0.68,0-1.16-0.17-1.45-0.51c-0.29-0.34-0.46-0.63-0.51-0.88l-10.47-23.41l-10.32,23.19c-0.52,1.07-1.25,1.61-2.19,1.61h-2.11
				c-0.57,0-1-0.17-1.29-0.51s-0.48-0.63-0.59-0.88l-22.75-51.2c0-0.05-0.01-0.13-0.04-0.26c-0.03-0.12-0.04-0.23-0.04-0.33
				c0-0.73,0.47-1.1,1.41-1.1h3.83c0.89,0,1.56,0.54,2.03,1.61L561.99,514.26z"/>
			<path class="st0" d="M643.13,468.76c4.12,0,7.99,0.73,11.61,2.19s6.79,3.45,9.5,5.96s4.85,5.47,6.41,8.89s2.34,7.07,2.34,10.97
				c0,3.85-0.78,7.46-2.34,10.83s-3.7,6.3-6.41,8.82c-2.71,2.51-5.88,4.5-9.5,5.96s-7.52,2.19-11.69,2.19
				c-4.12,0-7.99-0.73-11.61-2.19s-6.78-3.45-9.46-5.96s-4.81-5.46-6.37-8.85c-1.56-3.39-2.34-7.01-2.34-10.86s0.78-7.47,2.34-10.86
				s3.7-6.35,6.41-8.89c2.71-2.53,5.87-4.54,9.5-6C635.15,469.49,639.02,468.76,643.13,468.76z M620.07,496.63
				c0,2.97,0.6,5.78,1.8,8.41c1.2,2.63,2.84,4.94,4.93,6.91c2.08,1.98,4.53,3.52,7.35,4.64c2.81,1.12,5.81,1.68,8.99,1.68
				s6.16-0.56,8.95-1.68c2.79-1.12,5.22-2.67,7.31-4.64s3.73-4.28,4.93-6.91c1.2-2.63,1.8-5.44,1.8-8.41s-0.6-5.77-1.8-8.38
				s-2.84-4.89-4.93-6.84c-2.08-1.95-4.52-3.49-7.31-4.61s-5.77-1.68-8.95-1.68s-6.18,0.56-8.99,1.68s-5.26,2.66-7.35,4.61
				c-2.09,1.95-3.73,4.23-4.93,6.84C620.67,490.86,620.07,493.65,620.07,496.63z"/>
			<path class="st0" d="M682.84,522.16v-50.91c0-1.17,0.57-1.75,1.72-1.75h22.59c2.55,0,4.95,0.45,7.19,1.35
				c2.24,0.9,4.18,2.13,5.82,3.69s2.94,3.39,3.91,5.49c0.96,2.1,1.45,4.34,1.45,6.73c0,3.46-0.99,6.58-2.97,9.36
				c-1.98,2.78-4.56,4.85-7.74,6.22l10.32,19.82c0.1,0.39,0.16,0.61,0.16,0.66c0,0.63-0.47,0.95-1.41,0.95h-4.3
				c-0.52,0-0.93-0.12-1.21-0.37c-0.29-0.24-0.56-0.59-0.82-1.02l-9.46-18.58c-0.16,0-0.44,0.01-0.86,0.04
				c-0.42,0.03-0.87,0.04-1.37,0.04s-0.99,0-1.49,0s-0.87,0-1.13,0h-13.68v18.29c0,1.07-0.57,1.61-1.72,1.61h-3.28
				C683.42,523.77,682.84,523.23,682.84,522.16z M718.8,486.68c0-1.46-0.3-2.85-0.9-4.17c-0.6-1.32-1.42-2.47-2.46-3.47
				c-1.04-1-2.27-1.8-3.67-2.41c-1.41-0.61-2.94-0.92-4.61-0.92h-17.59v21.95h17.67c1.67,0,3.2-0.29,4.61-0.88s2.62-1.38,3.63-2.38
				c1.02-1,1.82-2.17,2.42-3.51C718.5,489.55,718.8,488.14,718.8,486.68z"/>
			<path class="st0" d="M742.02,507.16v15c0,1.07-0.6,1.61-1.8,1.61h-3.21c-1.15,0-1.72-0.54-1.72-1.61V471.1
				c0-0.44,0.14-0.82,0.43-1.13c0.29-0.32,0.72-0.47,1.29-0.47h3.28c0.47,0,0.87,0.15,1.21,0.44s0.51,0.68,0.51,1.17v27.21
				L770,470.6c0.63-0.73,1.25-1.1,1.88-1.1h6.72c0.68,0,1.02,0.15,1.02,0.44c0,0.2-0.09,0.39-0.27,0.59s-0.33,0.34-0.43,0.44
				l-21.89,21.58c4.53,5.02,9.07,9.96,13.6,14.81c4.53,4.85,8.96,9.84,13.29,14.96c0.26,0.29,0.42,0.48,0.47,0.55
				s0.08,0.16,0.08,0.26c0,0.1-0.07,0.23-0.2,0.4c-0.13,0.17-0.33,0.26-0.59,0.26h-6.72c-0.42,0-0.82-0.18-1.21-0.55
				s-0.79-0.82-1.21-1.35c-3.7-4.14-7.39-8.28-11.06-12.4s-7.36-8.25-11.06-12.4L742.02,507.16z"/>
			<path class="st0" d="M825.51,480.76c-0.63-0.54-1.41-1.15-2.34-1.83c-0.94-0.68-2.01-1.33-3.21-1.94s-2.51-1.12-3.95-1.54
				c-1.43-0.41-2.98-0.62-4.65-0.62c-2.19,0-4.08,0.26-5.67,0.77c-1.59,0.51-2.89,1.18-3.91,2.01c-1.02,0.83-1.77,1.77-2.27,2.82
				s-0.74,2.11-0.74,3.18c0,1.22,0.4,2.29,1.21,3.22s1.88,1.72,3.21,2.38c1.33,0.66,2.83,1.23,4.49,1.72c1.67,0.49,3.34,0.95,5,1.39
				c2.34,0.59,4.73,1.23,7.15,1.94c2.42,0.71,4.64,1.62,6.64,2.74c2.01,1.12,3.65,2.51,4.93,4.17c1.28,1.66,1.92,3.78,1.92,6.36
				c0,2.63-0.57,5-1.72,7.09c-1.15,2.1-2.7,3.88-4.65,5.34s-4.26,2.59-6.92,3.37c-2.66,0.78-5.52,1.17-8.6,1.17
				c-4.07,0-7.93-0.77-11.61-2.3c-3.67-1.54-6.76-3.84-9.26-6.91c-0.42-0.54-0.63-0.98-0.63-1.32c0-0.44,0.23-0.83,0.7-1.17
				l2.5-1.98c0.36-0.24,0.75-0.37,1.17-0.37c0.36,0,0.72,0.16,1.06,0.48s0.56,0.52,0.66,0.62c1.15,1.12,2.44,2.11,3.87,2.96
				c1.43,0.85,2.87,1.56,4.3,2.12s2.8,0.99,4.1,1.28c1.3,0.29,2.42,0.44,3.36,0.44c1.61,0,3.31-0.21,5.08-0.62s3.39-1.05,4.85-1.9
				c1.46-0.85,2.66-1.94,3.6-3.26s1.41-2.85,1.41-4.61c0-1.51-0.44-2.77-1.33-3.77s-2.06-1.87-3.52-2.6s-3.14-1.35-5.04-1.87
				c-1.9-0.51-3.87-1.01-5.9-1.5c-6.46-1.56-11.28-3.43-14.46-5.6s-4.77-5.11-4.77-8.81c0-2.24,0.47-4.29,1.41-6.15
				c0.94-1.85,2.29-3.45,4.06-4.79c1.77-1.34,3.9-2.38,6.37-3.11s5.22-1.1,8.25-1.1c3.13,0,6.3,0.65,9.54,1.94
				c3.23,1.29,5.97,2.96,8.21,5.01c0.31,0.34,0.64,0.69,0.98,1.06c0.34,0.37,0.51,0.7,0.51,0.99c0,0.39-0.21,0.78-0.63,1.17
				l-2.34,2.12c-0.37,0.34-0.7,0.51-1.02,0.51C826.49,481.49,826.03,481.24,825.51,480.76z"/>
		</g>
	</g>
	<g>
		<g>
			<path class="st0" d="M116.87,373.64c32.44,22.11,69.61,32.85,106.55,32.84c57.37,0,114.11-25.86,151.39-74.98
				c43.9-57.85,51.09-134.22,18.76-199.3c-3.65-7.34-7.8-14.45-12.37-21.26c-1.21,1.49-2.8,2.63-4.64,3.28
				c4.4,6.57,8.41,13.43,11.93,20.51c31.37,63.14,24.4,137.22-18.19,193.34c-59.42,78.29-169.77,95.65-250.12,40.98
				C119.5,370.87,118.35,372.44,116.87,373.64z"/>
		</g>
		<g>
			<path class="st0" d="M330.55,59.99c-37.07-25.34-81.17-36.56-125.89-32.02c0.81,1.49,1.31,3.18,1.31,4.99
				c0,0.2-0.05,0.39-0.06,0.58c42.98-4.2,85.32,6.6,121,30.85C327.71,62.61,328.97,61.09,330.55,59.99z"/>
		</g>
		<g>
			<path class="st0" d="M72.47,102.07c-47.21,62.2-51.35,146.42-11.4,212.66c1.27-1.43,2.9-2.5,4.77-3.07
				c-38.66-64.23-34.61-145.85,11.15-206.15c16.99-22.39,39-40.66,63.94-53.2c-1.08-1.57-1.71-3.44-1.8-5.45
				C113.1,59.78,90.16,78.76,72.47,102.07z"/>
		</g>
		<g>
			<path class="st0" d="M396.67,87.62c-24.52-33.05-57.68-58.3-95.89-73.04c-37.19-14.34-77.55-18.2-116.7-11.16
				c-10.11,1.82-20.11,4.4-29.86,7.64c1.17,1.48,1.94,3.28,2.18,5.25c9.37-3.09,18.98-5.56,28.69-7.3
				c79.57-14.3,158.9,17.12,207.03,82c33.6,45.28,47.55,100.94,39.29,156.71c-7.78,52.5-34.36,99.18-75.21,132.5
				c1.6,1.07,2.86,2.57,3.68,4.32c41.9-34.21,69.17-82.13,77.14-136C445.5,191.27,431.17,134.12,396.67,87.62z"/>
		</g>
		<g>
			<path class="st0" d="M15.16,177.62C24.6,127.29,51.5,82.85,91.81,51.09c-1.53-1.15-2.74-2.69-3.47-4.5
				C46.9,79.22,19.26,124.89,9.57,176.61c0.32-0.03,0.63-0.1,0.96-0.1C12.2,176.51,13.76,176.93,15.16,177.62z"/>
		</g>
		<g>
			<path class="st0" d="M53.06,342.57c-18.94-25.52-31.9-55.12-37.83-86.12c-1.42,0.71-3,1.15-4.7,1.15c-0.3,0-0.59-0.06-0.88-0.09
				c6.09,31.83,19.4,62.22,38.84,88.43c41.71,56.21,106.75,87.69,174.08,87.69c19.14,0,38.47-2.56,57.5-7.81
				c-1.08-1.54-1.73-3.39-1.86-5.38C194.62,443.34,105.16,412.78,53.06,342.57z"/>
		</g>
		<g>
			<path class="st0" d="M149.62,56.89c5.81,0,10.54-4.73,10.54-10.54s-4.73-10.54-10.54-10.54s-10.54,4.73-10.54,10.54
				c0,0.17,0.04,0.33,0.05,0.5c0.1,2.02,0.73,3.89,1.8,5.45C142.83,55.06,146.01,56.89,149.62,56.89z M149.62,40.67
				c3.13,0,5.68,2.55,5.68,5.68s-2.55,5.68-5.68,5.68c-1.67,0-3.17-0.74-4.21-1.9c-0.9-1.01-1.47-2.32-1.47-3.78
				c0-0.7,0.14-1.37,0.38-1.99C145.13,42.21,147.19,40.67,149.62,40.67z"/>
		</g>
		<g>
			<path class="st0" d="M91.81,51.09c1.77,1.33,3.94,2.15,6.31,2.15c5.81,0,10.54-4.73,10.54-10.54s-4.73-10.54-10.54-10.54
				S87.58,36.89,87.58,42.7c0,1.38,0.28,2.69,0.77,3.89C89.07,48.4,90.28,49.93,91.81,51.09z M92.45,42.7
				c0-3.13,2.55-5.68,5.68-5.68c3.13,0,5.68,2.55,5.68,5.68s-2.55,5.68-5.68,5.68c-0.78,0-1.52-0.16-2.2-0.44
				c-1.83-0.77-3.15-2.49-3.41-4.54C92.49,43.16,92.45,42.93,92.45,42.7z"/>
		</g>
		<g>
			<path class="st0" d="M145.97,7.01c-5.81,0-10.55,4.73-10.55,10.54c0,5.81,4.73,10.54,10.55,10.54c5.81,0,10.54-4.73,10.54-10.54
				c0-0.43-0.08-0.83-0.13-1.25c-0.24-1.97-1-3.77-2.18-5.25C152.28,8.61,149.32,7.01,145.97,7.01z M145.97,23.23
				c-3.13,0-5.68-2.55-5.68-5.68s2.55-5.68,5.68-5.68c1.16,0,2.24,0.35,3.14,0.95c1.53,1.02,2.54,2.75,2.54,4.72
				c0,0.14-0.03,0.28-0.04,0.42C151.39,20.91,148.96,23.23,145.97,23.23z"/>
		</g>
		<g>
			<path class="st0" d="M204.67,27.97c-1.79-3.29-5.23-5.55-9.23-5.55c-5.81,0-10.54,4.73-10.54,10.54s4.73,10.54,10.54,10.54
				c5.61,0,10.17-4.42,10.48-9.96c0.01-0.2,0.06-0.38,0.06-0.58C205.98,31.15,205.48,29.47,204.67,27.97z M195.44,38.64
				c-3.13,0-5.68-2.55-5.68-5.68s2.55-5.68,5.68-5.68c1.38,0,2.64,0.52,3.62,1.34c1.25,1.04,2.06,2.59,2.06,4.34
				c0,0.39-0.04,0.77-0.11,1.13C200.47,36.69,198.18,38.64,195.44,38.64z"/>
		</g>
		<g>
			<path class="st0" d="M336.55,79.19c5.81,0,10.54-4.73,10.54-10.54s-4.73-10.54-10.54-10.54c-2.23,0-4.29,0.71-6,1.89
				c-1.58,1.1-2.85,2.62-3.63,4.4c-0.58,1.3-0.91,2.74-0.91,4.25C326.01,74.46,330.74,79.19,336.55,79.19z M336.55,62.97
				c3.13,0,5.68,2.55,5.68,5.68s-2.55,5.68-5.68,5.68s-5.68-2.55-5.68-5.68c0-0.47,0.07-0.92,0.18-1.36
				c0.49-1.99,2.04-3.56,4.01-4.1C335.55,63.06,336.04,62.97,336.55,62.97z"/>
		</g>
		<g>
			<path class="st0" d="M381.19,110.94c1.48-1.82,2.4-4.1,2.4-6.62c0-5.81-4.73-10.54-10.54-10.54s-10.54,4.73-10.54,10.54
				s4.73,10.54,10.54,10.54c1.23,0,2.4-0.25,3.51-0.65C378.39,113.57,379.98,112.43,381.19,110.94z M373.56,109.95
				c-0.17,0.02-0.34,0.05-0.52,0.05c-3.13,0-5.68-2.55-5.68-5.68s2.55-5.68,5.68-5.68s5.68,2.55,5.68,5.68
				c0,0.84-0.19,1.63-0.52,2.35C377.37,108.48,375.63,109.76,373.56,109.95z"/>
		</g>
		<g>
			<path class="st0" d="M356.19,380.22c-1.67-1.12-3.68-1.78-5.85-1.78c-5.81,0-10.54,4.73-10.54,10.54s4.73,10.54,10.54,10.54
				s10.54-4.73,10.54-10.54c0-1.59-0.38-3.09-1.02-4.44C359.05,382.79,357.79,381.29,356.19,380.22z M356.02,388.98
				c0,3.13-2.55,5.68-5.68,5.68s-5.68-2.55-5.68-5.68s2.55-5.68,5.68-5.68c0.57,0,1.11,0.11,1.62,0.27c1.94,0.59,3.45,2.16,3.9,4.16
				C355.96,388.14,356.02,388.55,356.02,388.98z"/>
		</g>
		<g>
			<path class="st0" d="M288.71,409.26c-5.81,0-10.54,4.73-10.54,10.54c0,0.22,0.05,0.43,0.07,0.65c0.13,1.99,0.77,3.84,1.86,5.38
				c1.91,2.72,5.05,4.51,8.62,4.51c5.81,0,10.54-4.73,10.54-10.54S294.52,409.26,288.71,409.26z M288.71,425.48
				c-1.29,0-2.46-0.45-3.42-1.17c-1.36-1.04-2.26-2.66-2.26-4.5c0-0.26,0.04-0.51,0.08-0.77c0.38-2.77,2.73-4.91,5.6-4.91
				c3.13,0,5.68,2.55,5.68,5.68C294.38,422.93,291.84,425.48,288.71,425.48z"/>
		</g>
		<g>
			<path class="st0" d="M120.17,369.05c0.41-1.12,0.67-2.32,0.67-3.58c0-5.81-4.73-10.54-10.54-10.54s-10.54,4.73-10.54,10.54
				s4.73,10.54,10.54,10.54c2.5,0,4.77-0.91,6.58-2.37C118.35,372.44,119.5,370.87,120.17,369.05z M110.29,371.14
				c-3.13,0-5.68-2.55-5.68-5.68s2.55-5.68,5.68-5.68c3.13,0,5.68,2.55,5.68,5.68c0,0.2-0.04,0.4-0.06,0.59
				c-0.22,2.04-1.5,3.76-3.3,4.57C111.9,370.96,111.12,371.14,110.29,371.14z"/>
		</g>
		<g>
			<path class="st0" d="M61.07,314.72c-1.65,1.86-2.68,4.28-2.68,6.95c0,5.81,4.73,10.54,10.54,10.54s10.54-4.73,10.54-10.54
				s-4.73-10.54-10.54-10.54c-1.08,0-2.11,0.21-3.09,0.52C63.97,312.23,62.34,313.29,61.07,314.72z M68.57,316.04
				c0.12-0.01,0.24-0.04,0.36-0.04c3.13,0,5.68,2.55,5.68,5.68s-2.55,5.68-5.68,5.68c-3.13,0-5.68-2.55-5.68-5.68
				c0-0.89,0.23-1.73,0.6-2.48C64.72,317.42,66.49,316.17,68.57,316.04z"/>
		</g>
		<g>
			<path class="st0" d="M15.23,256.46c3.45-1.73,5.85-5.27,5.85-9.39c0-5.81-4.73-10.54-10.54-10.54S0,241.26,0,247.07
				c0,5.51,4.27,10,9.66,10.45c0.3,0.02,0.58,0.09,0.88,0.09C12.23,257.61,13.81,257.17,15.23,256.46z M4.86,247.07
				c0-3.13,2.55-5.68,5.68-5.68s5.68,2.55,5.68,5.68c0,1.68-0.75,3.17-1.91,4.21c-1,0.9-2.32,1.46-3.77,1.46
				c-0.63,0-1.23-0.13-1.8-0.32C6.49,251.67,4.86,249.57,4.86,247.07z"/>
		</g>
		<g>
			<path class="st0" d="M10.54,197.6c5.81,0,10.54-4.73,10.54-10.54c0-4.15-2.43-7.71-5.92-9.43c-1.4-0.69-2.96-1.11-4.62-1.11
				c-0.33,0-0.64,0.07-0.96,0.1C4.22,177.12,0,181.58,0,187.07C-0.01,192.87,4.72,197.6,10.54,197.6z M8.68,181.72
				c0.59-0.21,1.21-0.34,1.86-0.34c1.43,0,2.72,0.55,3.71,1.42c1.19,1.04,1.96,2.55,1.96,4.26c0,3.13-2.55,5.68-5.68,5.68
				s-5.68-2.55-5.68-5.68C4.86,184.58,6.46,182.49,8.68,181.72z"/>
		</g>
		<g>
			<path class="st0" d="M834.18,166.8c0-0.01,0-0.02,0-0.03c-0.16-64.76-47.51-118.41-109.49-128.41c-1.97-0.32-3.93-0.82-5.94-0.82
				c-15.01,0-11.66,0-30.02,0H520.08c0,0-15.06,0.02-22.39,0.02c-12.37,0-22.39,10.03-22.39,22.39c0,0.27,0,0.54,0,0.82
				c0,5.87,0,14.35,0,14.35v0.82V374v0.82c0,12.37,10.03,22.39,22.39,22.39c12.37,0,32.5,0,44.86,0c12.37,0,22.39-10.02,22.39-22.39
				h0.08V163.43c0,0,0-9.37,0-12.97c0-6.81,3.05-12.9,7.85-17.01c0.12-0.04,0.19-0.1,0.24-0.18c1.65-1.38,3.49-2.53,5.49-3.39
				c0.08-0.01,0.12-0.03,0.13-0.07c2.67-1.12,5.59-1.74,8.67-1.74c1.41,0,5.49,0,9.26,0c2.48,0,4.83,0,6.2,0c8.57,0,17.95,0,27.41,0
				c86.83,0,113.59,45.7,113.59,129.32c0,3.36,0.25,5.62,0.56,7.63c0,8.67,0,17.42,0,25.99c0.01,44.23,0.01,83.79,0.01,83.79
				c0,12.37,10.02,22.39,22.39,22.39s32.5,0,44.86,0c12.37,0,22.39-10.02,22.39-22.39h0.08v-0.82l0,0V167.36
				c0-0.1,0.01-0.19,0.01-0.29C834.19,166.99,834.18,166.9,834.18,166.8z"/>
		</g>
		<g>
			<g>
				<g>
					<path class="st0" d="M159.3,82.33c2.37,0,4.29-1.92,4.29-4.29s-1.92-4.29-4.29-4.29s-4.29,1.92-4.29,4.29
						C155.02,80.41,156.94,82.33,159.3,82.33z"/>
				</g>
				<g>
					<path class="st0" d="M184.53,83.18c2.84,0,5.14-2.3,5.14-5.14c0-2.84-2.3-5.14-5.14-5.14c-2.84,0-5.14,2.3-5.14,5.14
						S181.69,83.18,184.53,83.18z"/>
				</g>
				<g>
					<path class="st0" d="M209.76,85.88c4.33,0,7.84-3.51,7.84-7.84s-3.51-7.84-7.84-7.84s-7.83,3.51-7.83,7.84
						C201.93,82.37,205.44,85.88,209.76,85.88z"/>
				</g>
				<g>
					<path class="st0" d="M235,85.6c4.17,0,7.56-3.39,7.56-7.56c0-4.17-3.38-7.56-7.56-7.56c-4.17,0-7.56,3.38-7.56,7.56
						C227.44,82.21,230.82,85.6,235,85.6z"/>
				</g>
				<g>
					<path class="st0" d="M260.23,83.29c2.9,0,5.25-2.35,5.25-5.25s-2.35-5.25-5.25-5.25s-5.25,2.35-5.25,5.25
						S257.33,83.29,260.23,83.29z"/>
				</g>
				<g>
					<path class="st0" d="M285.46,82.33c2.37,0,4.29-1.92,4.29-4.29s-1.92-4.29-4.29-4.29s-4.29,1.92-4.29,4.29
						S283.09,82.33,285.46,82.33z"/>
				</g>
				<g>
					<path class="st0" d="M134.07,109.9c3.66,0,6.62-2.96,6.62-6.62c0-3.65-2.96-6.62-6.62-6.62c-3.66,0-6.62,2.97-6.62,6.62
						S130.42,109.9,134.07,109.9z"/>
				</g>
				<g>
					<path class="st0" d="M159.3,111.74c4.68,0,8.47-3.79,8.47-8.47s-3.79-8.47-8.47-8.47c-4.67,0-8.46,3.79-8.46,8.47
						C150.84,107.95,154.63,111.74,159.3,111.74z"/>
				</g>
				<g>
					<path class="st0" d="M184.54,113c5.37,0,9.72-4.35,9.72-9.73c0-5.37-4.35-9.72-9.73-9.72c-5.37,0-9.73,4.35-9.73,9.72
						C174.81,108.65,179.16,113,184.54,113z"/>
				</g>
				<g>
					<circle class="st0" cx="209.77" cy="103.27" r="10.92"/>
				</g>
				<g>
					<path class="st0" d="M235,113.84c5.83,0,10.57-4.73,10.57-10.57c0-5.83-4.73-10.56-10.57-10.56s-10.57,4.73-10.57,10.56
						C224.43,109.11,229.16,113.84,235,113.84z"/>
				</g>
				<g>
					<path class="st0" d="M260.23,113c5.37,0,9.72-4.35,9.72-9.73c0-5.37-4.35-9.72-9.73-9.72c-5.37,0-9.73,4.35-9.73,9.72
						S254.86,113,260.23,113z"/>
				</g>
				<g>
					<path class="st0" d="M285.46,111.74c4.68,0,8.47-3.79,8.47-8.47s-3.79-8.47-8.47-8.47s-8.47,3.79-8.47,8.47
						C277,107.95,280.79,111.74,285.46,111.74z"/>
				</g>
				<g>
					<path class="st0" d="M310.69,109.89c3.66,0,6.62-2.96,6.62-6.62s-2.96-6.62-6.62-6.62c-3.65,0-6.62,2.96-6.62,6.62
						S307.04,109.89,310.69,109.89z"/>
				</g>
				<g>
					<path class="st0" d="M108.84,135.13c3.66,0,6.62-2.96,6.62-6.62c0-3.66-2.96-6.62-6.62-6.62c-3.66,0-6.62,2.96-6.62,6.62
						C102.22,132.16,105.18,135.13,108.84,135.13z"/>
				</g>
				<g>
					<path class="st0" d="M134.07,137.46c4.95,0,8.96-4.01,8.96-8.95c0-4.95-4.01-8.96-8.96-8.96c-4.95,0-8.96,4.01-8.96,8.96
						C125.12,133.45,129.13,137.46,134.07,137.46z"/>
				</g>
				<g>
					<path class="st0" d="M159.3,139.28c5.95,0,10.78-4.82,10.78-10.77c0-5.95-4.82-10.78-10.78-10.78
						c-5.95,0-10.77,4.82-10.77,10.78C148.53,134.46,153.35,139.28,159.3,139.28z"/>
				</g>
				<g>
					<path class="st0" d="M285.46,139.28c5.95,0,10.78-4.82,10.78-10.77c0-5.95-4.83-10.78-10.78-10.78s-10.78,4.82-10.78,10.78
						C274.69,134.46,279.51,139.28,285.46,139.28z"/>
				</g>
				<g>
					<path class="st0" d="M310.69,135.43c3.83,0,6.93-3.1,6.93-6.92c0-3.83-3.1-6.93-6.93-6.93s-6.93,3.1-6.93,6.93
						C303.76,132.34,306.87,135.43,310.69,135.43z"/>
				</g>
				<g>
					<path class="st0" d="M335.93,135.12c3.65,0,6.62-2.96,6.62-6.62c0-3.66-2.97-6.62-6.62-6.62c-3.66,0-6.62,2.96-6.62,6.62
						C329.3,132.16,332.27,135.12,335.93,135.12z"/>
				</g>
				<g>
					<path class="st0" d="M83.61,158.03c2.37,0,4.29-1.92,4.29-4.29s-1.92-4.29-4.29-4.29s-4.29,1.92-4.29,4.29
						C79.32,156.11,81.24,158.03,83.61,158.03z"/>
				</g>
				<g>
					<path class="st0" d="M108.84,162.21c4.67,0,8.47-3.79,8.47-8.47s-3.79-8.47-8.47-8.47c-4.67,0-8.47,3.79-8.47,8.47
						C100.37,158.42,104.17,162.21,108.84,162.21z"/>
				</g>
				<g>
					<path class="st0" d="M134.07,164.52c5.95,0,10.78-4.82,10.78-10.78c0-5.95-4.82-10.78-10.78-10.78
						c-5.95,0-10.77,4.82-10.77,10.78C123.3,159.69,128.12,164.52,134.07,164.52z"/>
				</g>
				<g>
					<path class="st0" d="M310.69,164.51c5.95,0,10.78-4.82,10.78-10.78c0-5.95-4.82-10.78-10.78-10.78
						c-5.95,0-10.77,4.82-10.77,10.78C299.92,159.69,304.74,164.51,310.69,164.51z"/>
				</g>
				<g>
					<path class="st0" d="M335.93,162.2c4.67,0,8.47-3.79,8.47-8.47s-3.79-8.47-8.47-8.47s-8.47,3.79-8.47,8.47
						S331.25,162.2,335.93,162.2z"/>
				</g>
				<g>
					<path class="st0" d="M361.16,158.02c2.37,0,4.29-1.92,4.29-4.29s-1.92-4.29-4.29-4.29s-4.29,1.92-4.29,4.29
						C356.87,156.1,358.79,158.02,361.16,158.02z"/>
				</g>
				<g>
					<path class="st0" d="M83.61,184.11c2.84,0,5.14-2.3,5.14-5.14c0-2.84-2.3-5.14-5.14-5.14s-5.14,2.3-5.14,5.14
						C78.47,181.81,80.77,184.11,83.61,184.11z"/>
				</g>
				<g>
					<path class="st0" d="M108.84,188.7c5.37,0,9.73-4.36,9.73-9.73c0-5.37-4.35-9.72-9.73-9.72c-5.37,0-9.73,4.35-9.73,9.72
						C99.12,184.34,103.47,188.7,108.84,188.7z"/>
				</g>
				<g>
					<path class="st0" d="M335.93,188.69c5.37,0,9.72-4.36,9.72-9.73c0-5.37-4.35-9.72-9.72-9.72s-9.73,4.35-9.73,9.72
						C326.2,184.34,330.55,188.69,335.93,188.69z"/>
				</g>
				<g>
					<path class="st0" d="M361.16,184c2.78,0,5.04-2.26,5.04-5.04s-2.25-5.04-5.04-5.04c-2.78,0-5.04,2.26-5.04,5.04
						C356.12,181.75,358.38,184,361.16,184z"/>
				</g>
				<g>
					<path class="st0" d="M83.61,196.65c-4.17,0-7.56,3.38-7.56,7.56c0,4.17,3.38,7.56,7.56,7.56c4.17,0,7.56-3.38,7.56-7.56
						S87.78,196.65,83.61,196.65z"/>
				</g>
				<g>
					<path class="st0" d="M108.84,193.64c-5.84,0-10.57,4.73-10.57,10.57s4.73,10.57,10.57,10.57c5.84,0,10.56-4.73,10.56-10.57
						C119.41,198.37,114.68,193.64,108.84,193.64z"/>
				</g>
				<g>
					<path class="st0" d="M323.78,204.2c0-7.14-5.72-12.93-12.82-13.07c6.6-0.14,11.91-5.53,11.91-12.16
						c0-6.72-5.45-12.17-12.18-12.17c-5.44,0-10.04,3.57-11.6,8.49c-1.24-4.57-4.69-8.22-9.15-9.71c4.78-1.81,8.19-6.42,8.19-11.83
						c0-6.99-5.67-12.66-12.66-12.66c-5.42,0-10.02,3.41-11.83,8.19c-1.49-4.46-5.14-7.92-9.71-9.15c4.92-1.56,8.49-6.17,8.49-11.6
						c0-6.72-5.45-12.18-12.18-12.18c-6.64,0-12.02,5.31-12.16,11.91c-0.15-7.1-5.94-12.82-13.07-12.82
						c-5.8,0-10.72,3.78-12.43,9.01c-1.73-5.43-6.8-9.36-12.8-9.36c-6.7,0-12.24,4.91-13.25,11.32c-1-5.71-5.98-10.06-11.98-10.06
						c-6.72,0-12.17,5.45-12.17,12.18c0,5.44,3.57,10.04,8.49,11.6c-4.57,1.24-8.22,4.69-9.71,9.15c-1.81-4.78-6.42-8.19-11.84-8.19
						c-6.99,0-12.66,5.67-12.66,12.66c0,5.42,3.41,10.02,8.19,11.83c-4.46,1.49-7.92,5.14-9.15,9.71c-1.56-4.92-6.16-8.49-11.6-8.49
						c-6.72,0-12.17,5.45-12.17,12.17c0,6.63,5.31,12.02,11.91,12.16c-7.1,0.14-12.82,5.93-12.82,13.07c0,6.04,4.1,11.11,9.66,12.62
						c-5.56,1.51-9.66,6.58-9.66,12.62c0,7.14,5.72,12.93,12.82,13.07c-6.6,0.14-11.91,5.53-11.91,12.16
						c0,6.72,5.45,12.17,12.17,12.17c5.44,0,10.04-3.56,11.6-8.48c1.23,4.57,4.69,8.22,9.15,9.71c-4.78,1.81-8.19,6.42-8.19,11.83
						c0,6.99,5.67,12.67,12.66,12.67c5.42,0,10.03-3.41,11.83-8.19c1.49,4.46,5.14,7.92,9.71,9.15c-4.92,1.56-8.48,6.16-8.48,11.6
						c0,6.73,5.45,12.17,12.17,12.17c6,0,10.98-4.35,11.98-10.06c1.01,6.42,6.55,11.33,13.25,11.33c6,0,11.08-3.93,12.8-9.36
						c1.71,5.23,6.63,9.01,12.43,9.01c7.14,0,12.93-5.72,13.07-12.82c0.14,6.6,5.52,11.91,12.16,11.91
						c6.73,0,12.18-5.45,12.18-12.17c0-5.44-3.57-10.04-8.49-11.6c4.57-1.24,8.22-4.69,9.71-9.15c1.81,4.78,6.42,8.19,11.83,8.19
						c7,0,12.66-5.67,12.66-12.67c0-5.42-3.41-10.02-8.19-11.83c4.46-1.49,7.92-5.14,9.15-9.71c1.56,4.92,6.17,8.48,11.6,8.48
						c6.73,0,12.18-5.45,12.18-12.17c0-6.63-5.31-12.02-11.91-12.16c7.1-0.14,12.82-5.93,12.82-13.07c0-6.04-4.1-11.11-9.66-12.62
						C319.68,215.31,323.78,210.24,323.78,204.2z M145.68,250.98c-1.54-4.84-6.02-8.36-11.34-8.47c4.88-0.1,9.1-2.85,11.27-6.89
						c1.34,2.95,3.59,5.4,6.4,6.96C148.93,244.44,146.63,247.43,145.68,250.98z M137.5,216.82c3.5-0.95,6.42-3.3,8.11-6.43
						c1.19,2.64,3.12,4.87,5.52,6.43c-2.41,1.56-4.33,3.79-5.52,6.43C143.92,220.12,141,217.77,137.5,216.82z M145.6,198.02
						c-2.17-4.03-6.39-6.79-11.27-6.89c5.32-0.11,9.8-3.63,11.34-8.47c0.96,3.55,3.26,6.54,6.33,8.4
						C149.19,192.62,146.94,195.07,145.6,198.02z M171.14,275.42c-1.28-3.39-3.97-6.07-7.36-7.36c3.02-1.01,5.59-3.01,7.31-5.61
						c1.36,2.34,3.31,4.3,5.66,5.66C174.15,269.83,172.15,272.4,171.14,275.42z M171.1,171.19c-1.73-2.61-4.29-4.61-7.31-5.62
						c3.39-1.28,6.07-3.97,7.36-7.36c1.01,3.02,3.01,5.59,5.61,7.31C174.41,166.89,172.46,168.85,171.1,171.19z M196.52,303.02
						c-0.79-4.49-4.02-8.14-8.29-9.49c3.42-0.93,6.31-3.09,8.19-5.98c1.5,2.61,3.73,4.74,6.42,6.1
						C199.52,295.65,197.15,299.04,196.52,303.02z M196.41,146.09c-1.87-2.9-4.77-5.06-8.19-5.98c4.27-1.36,7.5-5,8.29-9.49
						c0.63,3.98,3,7.37,6.32,9.38C200.14,141.36,197.91,143.48,196.41,146.09z M222.57,301.06c-0.99-3.13-3.11-5.75-5.87-7.42
						c2.39-1.21,4.42-3.02,5.89-5.24c1.55,2.26,3.7,4.06,6.22,5.2C225.88,295.18,223.62,297.84,222.57,301.06z M222.59,145.23
						c-1.47-2.22-3.5-4.03-5.89-5.24c2.76-1.67,4.87-4.29,5.87-7.42c1.05,3.21,3.31,5.88,6.24,7.46
						C226.3,141.17,224.15,142.98,222.59,145.23z M248.07,304.86c-0.1-4.88-2.85-9.1-6.89-11.27c2.95-1.34,5.4-3.59,6.96-6.4
						c1.86,3.07,4.84,5.37,8.4,6.33C251.7,295.06,248.19,299.54,248.07,304.86z M248.15,146.43c-1.57-2.81-4.01-5.07-6.96-6.4
						c4.03-2.17,6.79-6.39,6.89-11.27c0.11,5.32,3.63,9.8,8.47,11.34C252.99,141.06,250.01,143.37,248.15,146.43z M273.63,158.21
						c1.28,3.38,3.97,6.07,7.36,7.36c-3.02,1.01-5.59,3.01-7.31,5.62c-1.36-2.35-3.31-4.3-5.66-5.66
						C270.62,163.8,272.62,161.24,273.63,158.21z M273.63,275.42c-1.01-3.02-3.01-5.59-5.62-7.31c2.34-1.36,4.3-3.31,5.66-5.66
						c1.73,2.61,4.29,4.61,7.31,5.61C277.6,269.34,274.91,272.03,273.63,275.42z M299.09,250.97c-0.96-3.55-3.26-6.53-6.33-8.39
						c2.81-1.57,5.07-4.01,6.4-6.96c2.17,4.03,6.39,6.79,11.27,6.89C305.11,242.62,300.63,246.13,299.09,250.97z M293.64,216.82
						c2.41-1.56,4.33-3.79,5.52-6.43c1.68,3.13,4.61,5.48,8.11,6.43c-3.5,0.95-6.42,3.3-8.11,6.43
						C297.97,220.61,296.04,218.38,293.64,216.82z M299.16,198.01c-1.33-2.95-3.58-5.39-6.4-6.96c3.07-1.86,5.37-4.84,6.33-8.4
						c1.54,4.84,6.02,8.36,11.34,8.47C305.56,191.23,301.33,193.98,299.16,198.01z"/>
				</g>
				<g>
					<path class="st0" d="M335.93,193.63c-5.83,0-10.57,4.73-10.57,10.57c0,5.83,4.73,10.57,10.57,10.57
						c5.83,0,10.56-4.73,10.56-10.57S341.76,193.63,335.93,193.63z"/>
				</g>
				<g>
					<path class="st0" d="M361.16,211.75c4.17,0,7.56-3.38,7.56-7.56c0-4.17-3.38-7.56-7.56-7.56c-4.17,0-7.56,3.38-7.56,7.56
						S356.98,211.75,361.16,211.75z"/>
				</g>
				<g>
					<path class="st0" d="M83.61,221.88c-4.17,0-7.56,3.38-7.56,7.56c0,4.17,3.38,7.56,7.56,7.56c4.17,0,7.56-3.39,7.56-7.56
						C91.17,225.26,87.78,221.88,83.61,221.88z"/>
				</g>
				<g>
					<path class="st0" d="M108.84,218.87c-5.84,0-10.57,4.73-10.57,10.57c0,5.83,4.73,10.56,10.57,10.56
						c5.84,0,10.56-4.73,10.56-10.56C119.41,223.6,114.68,218.87,108.84,218.87z"/>
				</g>
				<g>
					<path class="st0" d="M335.93,218.87c-5.83,0-10.57,4.73-10.57,10.57c0,5.83,4.73,10.56,10.57,10.56
						c5.83,0,10.56-4.73,10.56-10.56C346.49,223.59,341.76,218.87,335.93,218.87z"/>
				</g>
				<g>
					<path class="st0" d="M361.16,221.88c-4.17,0-7.56,3.38-7.56,7.56c0,4.17,3.38,7.56,7.56,7.56c4.17,0,7.56-3.39,7.56-7.56
						C368.71,225.26,365.33,221.88,361.16,221.88z"/>
				</g>
				<g>
					<path class="st0" d="M83.61,249.52c-2.84,0-5.14,2.3-5.14,5.14c0,2.84,2.3,5.14,5.14,5.14s5.14-2.3,5.14-5.14
						C88.75,251.83,86.45,249.52,83.61,249.52z"/>
				</g>
				<g>
					<path class="st0" d="M108.84,244.94c-5.37,0-9.73,4.35-9.73,9.72s4.35,9.72,9.73,9.72c5.37,0,9.73-4.35,9.73-9.73
						C118.57,249.3,114.21,244.94,108.84,244.94z"/>
				</g>
				<g>
					<path class="st0" d="M335.93,244.94c-5.37,0-9.73,4.35-9.73,9.72s4.35,9.72,9.73,9.72c5.37,0,9.72-4.35,9.72-9.73
						S341.3,244.94,335.93,244.94z"/>
				</g>
				<g>
					<path class="st0" d="M361.16,249.52c-2.84,0-5.14,2.3-5.14,5.14c0,2.84,2.3,5.14,5.14,5.14c2.84,0,5.14-2.3,5.14-5.14
						C366.3,251.82,364,249.52,361.16,249.52z"/>
				</g>
				<g>
					<path class="st0" d="M83.61,275.61c-2.37,0-4.29,1.92-4.29,4.28c0,2.37,1.92,4.29,4.29,4.29s4.29-1.92,4.29-4.29
						C87.9,277.53,85.98,275.61,83.61,275.61z"/>
				</g>
				<g>
					<path class="st0" d="M108.84,271.43c-4.67,0-8.47,3.79-8.47,8.46c0,4.68,3.79,8.47,8.47,8.47s8.47-3.79,8.47-8.47
						C117.31,275.22,113.52,271.43,108.84,271.43z"/>
				</g>
				<g>
					<path class="st0" d="M134.07,269.12c-5.95,0-10.77,4.82-10.77,10.77c0,5.95,4.82,10.78,10.77,10.78s10.78-4.82,10.78-10.78
						C144.85,273.95,140.03,269.12,134.07,269.12z"/>
				</g>
				<g>
					<path class="st0" d="M310.69,269.12c-5.95,0-10.77,4.82-10.77,10.77c0,5.95,4.82,10.78,10.77,10.78
						c5.95,0,10.78-4.82,10.78-10.78C321.47,273.94,316.65,269.12,310.69,269.12z"/>
				</g>
				<g>
					<path class="st0" d="M335.93,271.43c-4.68,0-8.47,3.79-8.47,8.46c0,4.68,3.79,8.47,8.47,8.47c4.67,0,8.47-3.79,8.47-8.47
						C344.39,275.22,340.6,271.43,335.93,271.43z"/>
				</g>
				<g>
					<path class="st0" d="M361.16,275.61c-2.37,0-4.29,1.92-4.29,4.29s1.92,4.29,4.29,4.29s4.29-1.92,4.29-4.29
						C365.44,277.53,363.53,275.61,361.16,275.61z"/>
				</g>
				<g>
					<path class="st0" d="M108.84,298.51c-3.66,0-6.62,2.97-6.62,6.62c0,3.66,2.96,6.62,6.62,6.62c3.66,0,6.62-2.96,6.62-6.62
						S112.5,298.51,108.84,298.51z"/>
				</g>
				<g>
					<path class="st0" d="M134.07,296.17c-4.95,0-8.96,4.01-8.96,8.96s4.01,8.96,8.96,8.96c4.95,0,8.96-4.01,8.96-8.96
						S139.02,296.17,134.07,296.17z"/>
				</g>
				<g>
					<path class="st0" d="M159.31,294.36c-5.95,0-10.77,4.82-10.77,10.77s4.82,10.77,10.77,10.77s10.78-4.82,10.78-10.77
						C170.08,299.18,165.26,294.36,159.31,294.36z"/>
				</g>
				<g>
					<path class="st0" d="M285.46,294.35c-5.95,0-10.78,4.82-10.78,10.77s4.83,10.77,10.78,10.77s10.78-4.82,10.78-10.77
						C296.24,299.18,291.41,294.35,285.46,294.35z"/>
				</g>
				<g>
					<path class="st0" d="M310.69,296.17c-4.94,0-8.95,4.01-8.95,8.96s4.01,8.96,8.95,8.96c4.95,0,8.96-4.01,8.96-8.96
						S315.64,296.17,310.69,296.17z"/>
				</g>
				<g>
					<path class="st0" d="M335.93,298.51c-3.66,0-6.62,2.97-6.62,6.62c0,3.66,2.96,6.62,6.62,6.62c3.65,0,6.62-2.96,6.62-6.62
						S339.58,298.51,335.93,298.51z"/>
				</g>
				<g>
					<path class="st0" d="M134.08,323.74c-3.66,0-6.62,2.96-6.62,6.62s2.96,6.62,6.62,6.62c3.66,0,6.62-2.96,6.62-6.62
						C140.7,326.7,137.73,323.74,134.08,323.74z"/>
				</g>
				<g>
					<path class="st0" d="M159.31,321.9c-4.67,0-8.46,3.79-8.46,8.46c0,4.68,3.79,8.47,8.46,8.47c4.68,0,8.47-3.79,8.47-8.47
						C167.77,325.68,163.98,321.9,159.31,321.9z"/>
				</g>
				<g>
					<path class="st0" d="M184.54,320.63c-5.37,0-9.73,4.35-9.73,9.72s4.35,9.73,9.73,9.73c5.37,0,9.72-4.35,9.72-9.73
						C194.26,324.99,189.91,320.63,184.54,320.63z"/>
				</g>
				<g>
					<path class="st0" d="M209.77,319.45c-6.03,0-10.92,4.89-10.91,10.91c0,6.03,4.89,10.92,10.92,10.92s10.92-4.89,10.91-10.92
						S215.8,319.45,209.77,319.45z"/>
				</g>
				<g>
					<path class="st0" d="M235,319.79c-5.83,0-10.57,4.73-10.57,10.56c0,5.84,4.73,10.57,10.57,10.57c5.83,0,10.57-4.73,10.57-10.57
						C245.57,324.52,240.84,319.79,235,319.79z"/>
				</g>
				<g>
					<path class="st0" d="M260.23,320.63c-5.37,0-9.73,4.35-9.73,9.72s4.35,9.73,9.73,9.73c5.37,0,9.72-4.35,9.72-9.73
						C269.96,324.99,265.61,320.63,260.23,320.63z"/>
				</g>
				<g>
					<path class="st0" d="M285.46,321.89c-4.68,0-8.47,3.79-8.47,8.46c0,4.68,3.79,8.47,8.47,8.47s8.47-3.79,8.47-8.47
						C293.93,325.68,290.14,321.89,285.46,321.89z"/>
				</g>
				<g>
					<path class="st0" d="M310.69,323.74c-3.65,0-6.62,2.96-6.62,6.62s2.96,6.62,6.62,6.62s6.62-2.96,6.62-6.62
						C317.31,326.7,314.35,323.74,310.69,323.74z"/>
				</g>
				<g>
					<path class="st0" d="M159.31,351.31c-2.37,0-4.29,1.92-4.29,4.29s1.92,4.29,4.29,4.29c2.01,0,4.29-2.27,4.29-4.29
						C163.59,353.23,161.67,351.31,159.31,351.31z"/>
				</g>
				<g>
					<path class="st0" d="M184.54,350.45c-2.84,0-5.14,2.3-5.14,5.14s2.3,5.14,5.14,5.14c2.84,0,5.14-2.3,5.14-5.14
						C189.68,352.75,187.38,350.45,184.54,350.45z"/>
				</g>
				<g>
					<path class="st0" d="M209.77,347.75c-4.33,0-7.83,3.51-7.83,7.84s3.51,7.84,7.83,7.84c4.33,0,7.84-3.51,7.84-7.84
						C217.61,351.26,214.1,347.75,209.77,347.75z"/>
				</g>
				<g>
					<path class="st0" d="M235,348.03c-4.17,0-7.56,3.38-7.56,7.56c0,4.17,3.38,7.56,7.56,7.56c4.17,0,7.56-3.38,7.56-7.56
						C242.56,351.42,239.17,348.03,235,348.03z"/>
				</g>
				<g>
					<path class="st0" d="M260.23,350.45c-2.84,0-5.14,2.3-5.14,5.14s2.3,5.14,5.14,5.14c2.84,0,5.14-2.3,5.14-5.14
						C265.38,352.75,263.07,350.45,260.23,350.45z"/>
				</g>
				<g>
					<path class="st0" d="M285.47,351.3c-2.37,0-4.29,1.92-4.29,4.29s1.92,4.29,4.29,4.29s4.29-1.92,4.29-4.29
						C289.75,353.22,287.83,351.3,285.47,351.3z"/>
				</g>
			</g>
		</g>
		<g>
			<circle class="st0" cx="372.46" cy="104.33" r="8.41"/>
		</g>
		<g>
			<path class="st0" d="M358.75,388.98c0,4.64-3.76,8.41-8.41,8.41c-4.64,0-8.41-3.76-8.41-8.41c0-4.64,3.76-8.41,8.41-8.41
				C354.99,380.57,358.75,384.34,358.75,388.98z"/>
		</g>
		<g>
			<path class="st0" d="M18.95,247.07c0,4.64-3.76,8.41-8.41,8.41c-4.64,0-8.41-3.76-8.41-8.41c0-4.64,3.76-8.41,8.41-8.41
				C15.18,238.66,18.95,242.42,18.95,247.07z"/>
		</g>
		<g>
			<circle class="st0" cx="98.12" cy="42.7" r="8.41"/>
		</g>
		<g>
			<path class="st0" d="M203.85,32.96c0,4.64-3.76,8.41-8.41,8.41c-4.64,0-8.41-3.76-8.41-8.41c0-4.64,3.76-8.41,8.41-8.41
				C200.08,24.55,203.85,28.32,203.85,32.96z"/>
		</g>
		<g>
			<path class="st0" d="M77.34,321.9c0,4.64-3.76,8.41-8.41,8.41c-4.64,0-8.41-3.76-8.41-8.41c0-4.64,3.76-8.41,8.41-8.41
				S77.34,317.25,77.34,321.9z"/>
		</g>
	</g>
</g>
</svg>
